<?xml version="1.0" encoding="UTF-8"?>
<svg id="_Слой_1" data-name="Слой_1" xmlns="http://www.w3.org/2000/svg" version="1.1" viewBox="0 0 1024 1024">
  <!-- Generator: Adobe Illustrator 29.4.0, SVG Export Plug-In . SVG Version: 2.1.0 Build 152)  -->
  <defs>
    <style>
      .st0 {
        fill: #18bcf2;
      }

      .st1 {
        fill: #fff;
      }

      .st2 {
        display: none;
      }
    </style>
  </defs>
  <g class="st2">
    <circle class="st0" cx="512" cy="512" r="510"/>
  </g>
  <path class="st1" d="M830.11,424.42l-287.35-287.35c-16.93-16.93-44.74-16.93-61.74,0L193.82,424.42c-16.93,16.93-30.87,50.52-30.87,74.52v261.78c0,24,19.65,43.65,43.65,43.65h268.38l-118.18-118.18c-6.12,2.11-12.58,3.33-19.31,3.33-32.84,0-59.63-26.79-59.63-59.63s26.79-59.63,59.63-59.63,59.63,26.79,59.63,59.63c0,6.8-1.22,13.26-3.33,19.38l92,92v-337.19c-19.79-9.72-33.45-29.99-33.45-53.44,0-32.84,26.79-59.63,59.63-59.63s59.63,26.79,59.63,59.63c0,23.46-13.67,43.79-33.45,53.44v236.35l91.52-91.52c-1.84-5.71-2.79-11.7-2.79-18.02,0-32.84,26.79-59.63,59.63-59.63s59.63,26.79,59.63,59.63-26.79,59.63-59.63,59.63c-7.28,0-14.21-1.36-20.6-3.74l-127.69,127.69v89.82h279.19c24,0,43.65-19.65,43.65-43.65v-261.78c0-24-13.87-57.52-30.87-74.52h0l-.07.07Z"/>
</svg>