<?xml version="1.0" encoding="UTF-8"?>
<svg id="_Слой_1" data-name="Слой_1" xmlns="http://www.w3.org/2000/svg" version="1.1" viewBox="0 0 256 256">
  <!-- Generator: Adobe Illustrator 29.4.0, SVG Export Plug-In . SVG Version: 2.1.0 Build 152)  -->
  <defs>
    <style>
      .st0 {
        fill: #fff;
      }
    </style>
  </defs>
  <path class="st0" d="M230.48,88.82c-2.42-4.86-8.31-6.85-13.18-4.43-4.86,2.42-6.85,8.32-4.43,13.18,6.54,13.16,9.86,27.35,9.86,42.18,0,52.32-42.56,94.88-94.88,94.88s-94.88-42.56-94.88-94.88c0-45.58,32.32-83.75,75.24-92.82l-8.79,13.32c-2.99,4.53-1.74,10.63,2.79,13.63,1.67,1.1,3.55,1.63,5.41,1.63,3.19,0,6.33-1.55,8.22-4.41l20.16-30.54s0,0,0,0l.05-.08c.18-.27.3-.56.45-.84.14-.26.3-.51.42-.78.24-.58.43-1.18.55-1.78.03-.12.02-.24.04-.35.09-.51.15-1.02.15-1.54,0-.04.01-.08.01-.12,0-.19-.04-.36-.05-.54-.02-.41-.05-.81-.12-1.21-.05-.27-.13-.53-.2-.8-.09-.33-.18-.66-.31-.98-.1-.27-.23-.52-.35-.78-.15-.3-.3-.59-.48-.88-.15-.24-.32-.47-.49-.7-.2-.26-.4-.51-.63-.76-.21-.22-.43-.44-.66-.64-.13-.12-.24-.26-.38-.37L104.47,3.58c-4.22-3.41-10.42-2.75-13.83,1.49-3.41,4.23-2.74,10.42,1.49,13.83l11.16,8.99C51.9,39.17,13.31,85.03,13.31,139.76c0,63.16,51.38,114.55,114.55,114.55s114.55-51.38,114.55-114.55c0-17.89-4.01-35.02-11.92-50.94Z"/>
</svg>