<?xml version="1.0" encoding="UTF-8"?>
<svg id="_Слой_1" data-name="Слой_1" xmlns="http://www.w3.org/2000/svg" version="1.1" viewBox="0 0 800 800">
  <!-- Generator: Adobe Illustrator 29.4.0, SVG Export Plug-In . SVG Version: 2.1.0 Build 152)  -->
  <defs>
    <style>
      .st0 {
        fill: #fff;
        fill-rule: evenodd;
      }
    </style>
  </defs>
  <path class="st0" d="M433.33,100c0-18.41-14.92-33.33-33.33-33.33s-33.33,14.92-33.33,33.33v300c0,18.41,14.92,33.33,33.33,33.33s33.33-14.92,33.33-33.33V100ZM286.97,195.81c16.1-8.93,21.91-29.22,12.97-45.32-8.93-16.1-29.22-21.91-45.32-12.97-92.14,51.13-154.63,149.48-154.63,262.48,0,165.69,134.31,300,300,300s300-134.31,300-300c0-111.08-60.39-208.02-149.98-259.84-15.93-9.22-36.33-3.77-45.54,12.16-9.22,15.94-3.77,36.33,12.16,45.54,69.83,40.39,116.69,115.81,116.69,202.14,0,128.87-104.47,233.33-233.33,233.33s-233.33-104.47-233.33-233.33c0-87.81,48.49-164.33,120.31-204.19Z"/>
</svg>